<svg xmlns="http://www.w3.org/2000/svg" width="32" height="32" viewBox="0 0 32 32" fill="none">
  <path d="M16 3C8.8203 3 3 8.8203 3 16C3 23.1797 8.8203 29 16 29C23.1797 29 29 23.1797 29 16C29 8.8203 23.1797 3 16 3ZM16 5C22.0859 5 27 9.9141 27 16C27 22.0859 22.0859 27 16 27C9.9141 27 5 22.0859 5 16C5 9.9141 9.9141 5 16 5ZM16 7C13.7969 7 11.75 7.8047 10.125 9.125L11.5 10.5C12.75 9.5 14.3203 9 16 9C17.6797 9 19.25 9.5 20.5 10.5L21.875 9.125C20.25 7.8047 18.2031 7 16 7ZM9.125 10.125C7.8047 11.75 7 13.7969 7 16C7 18.2031 7.8047 20.25 9.125 21.875L10.5 20.5C9.5 19.25 9 17.6797 9 16C9 14.3203 9.5 12.75 10.5 11.5L9.125 10.125ZM22.875 10.125L21.5 11.5C22.5 12.75 23 14.3203 23 16C23 17.6797 22.5 19.25 21.5 20.5L22.875 21.875C24.1953 20.25 25 18.2031 25 16C25 13.7969 24.1953 11.75 22.875 10.125ZM16 13C14.3438 13 13 14.3438 13 16C13 17.6562 14.3438 19 16 19C17.6562 19 19 17.6562 19 16C19 14.3438 17.6562 13 16 13ZM10.125 22.875L11.5 21.5C12.75 22.5 14.3203 23 16 23C17.6797 23 19.25 22.5 20.5 21.5L21.875 22.875C20.25 24.1953 18.2031 25 16 25C13.7969 25 11.75 24.1953 10.125 22.875Z" fill="#2c7873"/>
</svg>